<mxfile host="app.diagrams.net" modified="2023-10-30T15:12:46.309Z" agent="Mozilla/5.0 (Windows NT 10.0; Win64; x64) AppleWebKit/537.36 (KHTML, like Gecko) Chrome/110.0.0.0 Safari/537.36" etag="q-nuMIQvpOUp-RF9eAQh" version="22.0.8" type="device">
  <diagram id="PLR5TL4RLwVBLOHQURWt" name="Página-1">
    <mxGraphModel dx="1363" dy="880" grid="1" gridSize="10" guides="1" tooltips="1" connect="1" arrows="1" fold="1" page="1" pageScale="1" pageWidth="2000" pageHeight="1169" math="0" shadow="0">
      <root>
        <mxCell id="0" />
        <mxCell id="1" parent="0" />
        <mxCell id="xH7iesL_hVpo8TADQo8O-1" value="Cliente" style="rounded=0;whiteSpace=wrap;html=1;" parent="1" vertex="1">
          <mxGeometry x="200" y="381.5" width="80" height="40" as="geometry" />
        </mxCell>
        <mxCell id="xH7iesL_hVpo8TADQo8O-2" value="realiza" style="rhombus;whiteSpace=wrap;html=1;" parent="1" vertex="1">
          <mxGeometry x="320" y="445" width="80" height="60" as="geometry" />
        </mxCell>
        <mxCell id="xH7iesL_hVpo8TADQo8O-3" value="&lt;u&gt;DNI&lt;/u&gt;" style="ellipse;whiteSpace=wrap;html=1;" parent="1" vertex="1">
          <mxGeometry x="120" y="237" width="80" height="40" as="geometry" />
        </mxCell>
        <mxCell id="xH7iesL_hVpo8TADQo8O-4" value="Nombre" style="ellipse;whiteSpace=wrap;html=1;" parent="1" vertex="1">
          <mxGeometry x="60" y="277" width="80" height="40" as="geometry" />
        </mxCell>
        <mxCell id="xH7iesL_hVpo8TADQo8O-5" value="Dirección" style="ellipse;whiteSpace=wrap;html=1;" parent="1" vertex="1">
          <mxGeometry x="30" y="327" width="80" height="40" as="geometry" />
        </mxCell>
        <mxCell id="xH7iesL_hVpo8TADQo8O-7" value="Código Postal" style="ellipse;whiteSpace=wrap;html=1;" parent="1" vertex="1">
          <mxGeometry x="20" y="381.5" width="80" height="40" as="geometry" />
        </mxCell>
        <mxCell id="xH7iesL_hVpo8TADQo8O-13" value="Teléfono" style="ellipse;whiteSpace=wrap;html=1;" parent="1" vertex="1">
          <mxGeometry x="30" y="432" width="80" height="40" as="geometry" />
        </mxCell>
        <mxCell id="xH7iesL_hVpo8TADQo8O-14" value="Correo" style="ellipse;whiteSpace=wrap;html=1;" parent="1" vertex="1">
          <mxGeometry x="50" y="487" width="80" height="40" as="geometry" />
        </mxCell>
        <mxCell id="xH7iesL_hVpo8TADQo8O-15" value="Contraseña" style="ellipse;whiteSpace=wrap;html=1;" parent="1" vertex="1">
          <mxGeometry x="100" y="532" width="80" height="40" as="geometry" />
        </mxCell>
        <mxCell id="xH7iesL_hVpo8TADQo8O-16" value="Pedido" style="rounded=0;whiteSpace=wrap;html=1;" parent="1" vertex="1">
          <mxGeometry x="520" y="520" width="80" height="40" as="geometry" />
        </mxCell>
        <mxCell id="xH7iesL_hVpo8TADQo8O-17" value="Producto" style="rounded=0;whiteSpace=wrap;html=1;" parent="1" vertex="1">
          <mxGeometry x="840" y="519.5" width="80" height="40" as="geometry" />
        </mxCell>
        <mxCell id="xH7iesL_hVpo8TADQo8O-18" value="organizados en" style="rhombus;whiteSpace=wrap;html=1;" parent="1" vertex="1">
          <mxGeometry x="1000" y="511" width="80" height="60" as="geometry" />
        </mxCell>
        <mxCell id="xH7iesL_hVpo8TADQo8O-19" value="sobre" style="rhombus;whiteSpace=wrap;html=1;" parent="1" vertex="1">
          <mxGeometry x="680" y="507.5" width="80" height="60" as="geometry" />
        </mxCell>
        <mxCell id="xH7iesL_hVpo8TADQo8O-20" value="Categorías" style="rounded=0;whiteSpace=wrap;html=1;" parent="1" vertex="1">
          <mxGeometry x="1160" y="519.5" width="80" height="40" as="geometry" />
        </mxCell>
        <mxCell id="xH7iesL_hVpo8TADQo8O-21" value="&lt;u&gt;Nombre&lt;/u&gt;" style="ellipse;whiteSpace=wrap;html=1;" parent="1" vertex="1">
          <mxGeometry x="1090" y="434.5" width="80" height="40" as="geometry" />
        </mxCell>
        <mxCell id="xH7iesL_hVpo8TADQo8O-22" value="Condición de almacenamiento" style="ellipse;whiteSpace=wrap;html=1;" parent="1" vertex="1">
          <mxGeometry x="1145" y="379.5" width="110" height="50" as="geometry" />
        </mxCell>
        <mxCell id="xH7iesL_hVpo8TADQo8O-23" value="Frío" style="ellipse;whiteSpace=wrap;html=1;" parent="1" vertex="1">
          <mxGeometry x="1080" y="319.5" width="80" height="40" as="geometry" />
        </mxCell>
        <mxCell id="xH7iesL_hVpo8TADQo8O-24" value="Congelado" style="ellipse;whiteSpace=wrap;html=1;" parent="1" vertex="1">
          <mxGeometry x="1160" y="299.5" width="80" height="40" as="geometry" />
        </mxCell>
        <mxCell id="xH7iesL_hVpo8TADQo8O-25" value="Seco" style="ellipse;whiteSpace=wrap;html=1;" parent="1" vertex="1">
          <mxGeometry x="1240" y="319.5" width="80" height="40" as="geometry" />
        </mxCell>
        <mxCell id="xH7iesL_hVpo8TADQo8O-26" value="Observaciones" style="ellipse;whiteSpace=wrap;html=1;" parent="1" vertex="1">
          <mxGeometry x="1230" y="434.5" width="80" height="40" as="geometry" />
        </mxCell>
        <mxCell id="xH7iesL_hVpo8TADQo8O-27" value="&lt;u&gt;Nombre&lt;/u&gt;" style="ellipse;whiteSpace=wrap;html=1;" parent="1" vertex="1">
          <mxGeometry x="720" y="405" width="80" height="40" as="geometry" />
        </mxCell>
        <mxCell id="xH7iesL_hVpo8TADQo8O-28" value="&lt;u&gt;Marca&lt;/u&gt;" style="ellipse;whiteSpace=wrap;html=1;" parent="1" vertex="1">
          <mxGeometry x="740" y="300" width="80" height="40" as="geometry" />
        </mxCell>
        <mxCell id="xH7iesL_hVpo8TADQo8O-29" value="Origen" style="ellipse;whiteSpace=wrap;html=1;" parent="1" vertex="1">
          <mxGeometry x="720" y="350" width="80" height="40" as="geometry" />
        </mxCell>
        <mxCell id="xH7iesL_hVpo8TADQo8O-30" value="Dimensiones" style="ellipse;whiteSpace=wrap;html=1;" parent="1" vertex="1">
          <mxGeometry x="795" y="260" width="80" height="40" as="geometry" />
        </mxCell>
        <mxCell id="xH7iesL_hVpo8TADQo8O-31" value="Volumen" style="ellipse;whiteSpace=wrap;html=1;" parent="1" vertex="1">
          <mxGeometry x="750" y="170" width="80" height="40" as="geometry" />
        </mxCell>
        <mxCell id="xH7iesL_hVpo8TADQo8O-32" value="Peso" style="ellipse;whiteSpace=wrap;html=1;" parent="1" vertex="1">
          <mxGeometry x="840" y="170" width="80" height="40" as="geometry" />
        </mxCell>
        <mxCell id="xH7iesL_hVpo8TADQo8O-33" value="Precio" style="ellipse;whiteSpace=wrap;html=1;" parent="1" vertex="1">
          <mxGeometry x="960" y="350" width="80" height="40" as="geometry" />
        </mxCell>
        <mxCell id="xH7iesL_hVpo8TADQo8O-34" value="Categoría" style="ellipse;whiteSpace=wrap;html=1;" parent="1" vertex="1">
          <mxGeometry x="880" y="259.5" width="80" height="40" as="geometry" />
        </mxCell>
        <mxCell id="xH7iesL_hVpo8TADQo8O-35" value="Unidades&lt;br&gt;disponibles" style="ellipse;whiteSpace=wrap;html=1;" parent="1" vertex="1">
          <mxGeometry x="940" y="300" width="80" height="40" as="geometry" />
        </mxCell>
        <mxCell id="nnuj7ueeNtRS2dpJHOMj-1" value="Fotografía" style="ellipse;whiteSpace=wrap;html=1;" parent="1" vertex="1">
          <mxGeometry x="960" y="405" width="80" height="40" as="geometry" />
        </mxCell>
        <mxCell id="nnuj7ueeNtRS2dpJHOMj-2" value="Cesta de la compra" style="ellipse;whiteSpace=wrap;html=1;" parent="1" vertex="1">
          <mxGeometry x="440" y="432.5" width="80" height="40" as="geometry" />
        </mxCell>
        <mxCell id="nnuj7ueeNtRS2dpJHOMj-3" value="Fecha" style="ellipse;whiteSpace=wrap;html=1;" parent="1" vertex="1">
          <mxGeometry x="450" y="330" width="80" height="40" as="geometry" />
        </mxCell>
        <mxCell id="nnuj7ueeNtRS2dpJHOMj-4" value="&lt;u&gt;Código&lt;/u&gt;" style="ellipse;whiteSpace=wrap;html=1;" parent="1" vertex="1">
          <mxGeometry x="440" y="380" width="80" height="40" as="geometry" />
        </mxCell>
        <mxCell id="nnuj7ueeNtRS2dpJHOMj-5" value="DNI cliente" style="ellipse;whiteSpace=wrap;html=1;" parent="1" vertex="1">
          <mxGeometry x="600" y="379.5" width="80" height="40" as="geometry" />
        </mxCell>
        <mxCell id="nnuj7ueeNtRS2dpJHOMj-6" value="Dirección entrega" style="ellipse;whiteSpace=wrap;html=1;" parent="1" vertex="1">
          <mxGeometry x="590" y="330" width="80" height="40" as="geometry" />
        </mxCell>
        <mxCell id="nnuj7ueeNtRS2dpJHOMj-7" value="Importe Total" style="ellipse;whiteSpace=wrap;html=1;" parent="1" vertex="1">
          <mxGeometry x="600" y="432.5" width="80" height="40" as="geometry" />
        </mxCell>
        <mxCell id="nnuj7ueeNtRS2dpJHOMj-8" value="Datos de pago" style="ellipse;whiteSpace=wrap;html=1;" parent="1" vertex="1">
          <mxGeometry x="520" y="290" width="80" height="40" as="geometry" />
        </mxCell>
        <mxCell id="nnuj7ueeNtRS2dpJHOMj-9" value="Nº tarjeta" style="ellipse;whiteSpace=wrap;html=1;" parent="1" vertex="1">
          <mxGeometry x="470" y="210" width="80" height="40" as="geometry" />
        </mxCell>
        <mxCell id="nnuj7ueeNtRS2dpJHOMj-10" value="Fecha caducidad" style="ellipse;whiteSpace=wrap;html=1;" parent="1" vertex="1">
          <mxGeometry x="560" y="210" width="80" height="40" as="geometry" />
        </mxCell>
        <mxCell id="nnuj7ueeNtRS2dpJHOMj-11" value="Repartidor" style="rounded=0;whiteSpace=wrap;html=1;" parent="1" vertex="1">
          <mxGeometry x="200" y="660" width="80" height="40" as="geometry" />
        </mxCell>
        <mxCell id="nnuj7ueeNtRS2dpJHOMj-12" value="Distribuye" style="rhombus;whiteSpace=wrap;html=1;" parent="1" vertex="1">
          <mxGeometry x="320" y="550" width="80" height="60" as="geometry" />
        </mxCell>
        <mxCell id="nnuj7ueeNtRS2dpJHOMj-13" value="Nombre" style="ellipse;whiteSpace=wrap;html=1;" parent="1" vertex="1">
          <mxGeometry x="40" y="590" width="80" height="40" as="geometry" />
        </mxCell>
        <mxCell id="nnuj7ueeNtRS2dpJHOMj-14" value="&lt;u&gt;Matrícula Furgoneta&lt;/u&gt;" style="ellipse;whiteSpace=wrap;html=1;" parent="1" vertex="1">
          <mxGeometry x="40" y="730" width="80" height="40" as="geometry" />
        </mxCell>
        <mxCell id="nnuj7ueeNtRS2dpJHOMj-15" value="Códgo Postal de la zona en la que trabaja" style="ellipse;whiteSpace=wrap;html=1;" parent="1" vertex="1">
          <mxGeometry x="30" y="640" width="100" height="80" as="geometry" />
        </mxCell>
        <mxCell id="nnuj7ueeNtRS2dpJHOMj-16" value="" style="endArrow=none;html=1;rounded=0;exitX=0.5;exitY=0;exitDx=0;exitDy=0;entryX=1;entryY=0.5;entryDx=0;entryDy=0;" parent="1" source="xH7iesL_hVpo8TADQo8O-16" target="nnuj7ueeNtRS2dpJHOMj-3" edge="1">
          <mxGeometry width="50" height="50" relative="1" as="geometry">
            <mxPoint x="530" y="507.5" as="sourcePoint" />
            <mxPoint x="580" y="457.5" as="targetPoint" />
          </mxGeometry>
        </mxCell>
        <mxCell id="nnuj7ueeNtRS2dpJHOMj-17" value="" style="endArrow=none;html=1;rounded=0;entryX=0.5;entryY=1;entryDx=0;entryDy=0;exitX=0;exitY=0.5;exitDx=0;exitDy=0;" parent="1" source="xH7iesL_hVpo8TADQo8O-1" target="xH7iesL_hVpo8TADQo8O-3" edge="1">
          <mxGeometry width="50" height="50" relative="1" as="geometry">
            <mxPoint x="450" y="690" as="sourcePoint" />
            <mxPoint x="500" y="640" as="targetPoint" />
          </mxGeometry>
        </mxCell>
        <mxCell id="nnuj7ueeNtRS2dpJHOMj-18" value="" style="endArrow=none;html=1;rounded=0;entryX=1;entryY=0.5;entryDx=0;entryDy=0;exitX=0;exitY=0.5;exitDx=0;exitDy=0;" parent="1" source="xH7iesL_hVpo8TADQo8O-1" target="xH7iesL_hVpo8TADQo8O-4" edge="1">
          <mxGeometry width="50" height="50" relative="1" as="geometry">
            <mxPoint x="190" y="400" as="sourcePoint" />
            <mxPoint x="170" y="287" as="targetPoint" />
          </mxGeometry>
        </mxCell>
        <mxCell id="nnuj7ueeNtRS2dpJHOMj-19" value="" style="endArrow=none;html=1;rounded=0;entryX=0;entryY=0.5;entryDx=0;entryDy=0;exitX=1;exitY=0.5;exitDx=0;exitDy=0;" parent="1" source="xH7iesL_hVpo8TADQo8O-5" target="xH7iesL_hVpo8TADQo8O-1" edge="1">
          <mxGeometry width="50" height="50" relative="1" as="geometry">
            <mxPoint x="220" y="422" as="sourcePoint" />
            <mxPoint x="180" y="297" as="targetPoint" />
          </mxGeometry>
        </mxCell>
        <mxCell id="nnuj7ueeNtRS2dpJHOMj-20" value="" style="endArrow=none;html=1;rounded=0;entryX=0;entryY=0.5;entryDx=0;entryDy=0;exitX=1;exitY=0.5;exitDx=0;exitDy=0;" parent="1" source="xH7iesL_hVpo8TADQo8O-7" target="xH7iesL_hVpo8TADQo8O-1" edge="1">
          <mxGeometry width="50" height="50" relative="1" as="geometry">
            <mxPoint x="230" y="432" as="sourcePoint" />
            <mxPoint x="190" y="307" as="targetPoint" />
          </mxGeometry>
        </mxCell>
        <mxCell id="nnuj7ueeNtRS2dpJHOMj-21" value="" style="endArrow=none;html=1;rounded=0;entryX=1;entryY=0.5;entryDx=0;entryDy=0;exitX=0;exitY=0.5;exitDx=0;exitDy=0;" parent="1" source="xH7iesL_hVpo8TADQo8O-1" target="xH7iesL_hVpo8TADQo8O-13" edge="1">
          <mxGeometry width="50" height="50" relative="1" as="geometry">
            <mxPoint x="240" y="442" as="sourcePoint" />
            <mxPoint x="200" y="317" as="targetPoint" />
          </mxGeometry>
        </mxCell>
        <mxCell id="nnuj7ueeNtRS2dpJHOMj-22" value="" style="endArrow=none;html=1;rounded=0;entryX=0;entryY=0.5;entryDx=0;entryDy=0;exitX=0.5;exitY=0;exitDx=0;exitDy=0;" parent="1" source="xH7iesL_hVpo8TADQo8O-15" target="xH7iesL_hVpo8TADQo8O-1" edge="1">
          <mxGeometry width="50" height="50" relative="1" as="geometry">
            <mxPoint x="250" y="452" as="sourcePoint" />
            <mxPoint x="210" y="327" as="targetPoint" />
          </mxGeometry>
        </mxCell>
        <mxCell id="nnuj7ueeNtRS2dpJHOMj-23" value="" style="endArrow=none;html=1;rounded=0;entryX=0;entryY=0.5;entryDx=0;entryDy=0;exitX=1;exitY=0.5;exitDx=0;exitDy=0;" parent="1" source="xH7iesL_hVpo8TADQo8O-14" target="xH7iesL_hVpo8TADQo8O-1" edge="1">
          <mxGeometry width="50" height="50" relative="1" as="geometry">
            <mxPoint x="260" y="462" as="sourcePoint" />
            <mxPoint x="210" y="412" as="targetPoint" />
          </mxGeometry>
        </mxCell>
        <mxCell id="nnuj7ueeNtRS2dpJHOMj-24" value="" style="endArrow=none;html=1;rounded=0;entryX=0;entryY=0;entryDx=0;entryDy=0;exitX=1;exitY=0.5;exitDx=0;exitDy=0;" parent="1" source="xH7iesL_hVpo8TADQo8O-1" target="xH7iesL_hVpo8TADQo8O-2" edge="1">
          <mxGeometry width="50" height="50" relative="1" as="geometry">
            <mxPoint x="270" y="472" as="sourcePoint" />
            <mxPoint x="220" y="422" as="targetPoint" />
          </mxGeometry>
        </mxCell>
        <mxCell id="nnuj7ueeNtRS2dpJHOMj-25" value="" style="endArrow=none;html=1;rounded=0;entryX=0;entryY=1;entryDx=0;entryDy=0;exitX=1;exitY=0.5;exitDx=0;exitDy=0;" parent="1" source="nnuj7ueeNtRS2dpJHOMj-11" target="nnuj7ueeNtRS2dpJHOMj-12" edge="1">
          <mxGeometry width="50" height="50" relative="1" as="geometry">
            <mxPoint x="280" y="482" as="sourcePoint" />
            <mxPoint x="230" y="432" as="targetPoint" />
          </mxGeometry>
        </mxCell>
        <mxCell id="nnuj7ueeNtRS2dpJHOMj-26" value="" style="endArrow=none;html=1;rounded=0;entryX=0;entryY=0.5;entryDx=0;entryDy=0;exitX=1;exitY=1;exitDx=0;exitDy=0;" parent="1" source="xH7iesL_hVpo8TADQo8O-2" target="xH7iesL_hVpo8TADQo8O-16" edge="1">
          <mxGeometry width="50" height="50" relative="1" as="geometry">
            <mxPoint x="290" y="492" as="sourcePoint" />
            <mxPoint x="240" y="442" as="targetPoint" />
          </mxGeometry>
        </mxCell>
        <mxCell id="nnuj7ueeNtRS2dpJHOMj-27" value="" style="endArrow=none;html=1;rounded=0;entryX=0;entryY=0.5;entryDx=0;entryDy=0;exitX=1;exitY=0;exitDx=0;exitDy=0;" parent="1" source="nnuj7ueeNtRS2dpJHOMj-12" target="xH7iesL_hVpo8TADQo8O-16" edge="1">
          <mxGeometry width="50" height="50" relative="1" as="geometry">
            <mxPoint x="300" y="502" as="sourcePoint" />
            <mxPoint x="250" y="452" as="targetPoint" />
          </mxGeometry>
        </mxCell>
        <mxCell id="nnuj7ueeNtRS2dpJHOMj-28" value="" style="endArrow=none;html=1;rounded=0;entryX=1;entryY=0.5;entryDx=0;entryDy=0;exitX=0;exitY=0.5;exitDx=0;exitDy=0;" parent="1" source="nnuj7ueeNtRS2dpJHOMj-11" target="nnuj7ueeNtRS2dpJHOMj-13" edge="1">
          <mxGeometry width="50" height="50" relative="1" as="geometry">
            <mxPoint x="450" y="690" as="sourcePoint" />
            <mxPoint x="500" y="640" as="targetPoint" />
          </mxGeometry>
        </mxCell>
        <mxCell id="nnuj7ueeNtRS2dpJHOMj-29" value="" style="endArrow=none;html=1;rounded=0;entryX=0;entryY=0.5;entryDx=0;entryDy=0;exitX=1;exitY=0.5;exitDx=0;exitDy=0;" parent="1" source="nnuj7ueeNtRS2dpJHOMj-15" target="nnuj7ueeNtRS2dpJHOMj-11" edge="1">
          <mxGeometry width="50" height="50" relative="1" as="geometry">
            <mxPoint x="210" y="690" as="sourcePoint" />
            <mxPoint x="130" y="620" as="targetPoint" />
          </mxGeometry>
        </mxCell>
        <mxCell id="nnuj7ueeNtRS2dpJHOMj-30" value="" style="endArrow=none;html=1;rounded=0;entryX=0;entryY=0.5;entryDx=0;entryDy=0;exitX=1;exitY=0.5;exitDx=0;exitDy=0;" parent="1" source="nnuj7ueeNtRS2dpJHOMj-14" target="nnuj7ueeNtRS2dpJHOMj-11" edge="1">
          <mxGeometry width="50" height="50" relative="1" as="geometry">
            <mxPoint x="220" y="700" as="sourcePoint" />
            <mxPoint x="140" y="630" as="targetPoint" />
          </mxGeometry>
        </mxCell>
        <mxCell id="nnuj7ueeNtRS2dpJHOMj-31" value="" style="endArrow=none;html=1;rounded=0;entryX=0.5;entryY=0;entryDx=0;entryDy=0;exitX=0.5;exitY=1;exitDx=0;exitDy=0;" parent="1" source="nnuj7ueeNtRS2dpJHOMj-8" target="xH7iesL_hVpo8TADQo8O-16" edge="1">
          <mxGeometry width="50" height="50" relative="1" as="geometry">
            <mxPoint x="540" y="517.5" as="sourcePoint" />
            <mxPoint x="590" y="467.5" as="targetPoint" />
          </mxGeometry>
        </mxCell>
        <mxCell id="nnuj7ueeNtRS2dpJHOMj-32" value="" style="endArrow=none;html=1;rounded=0;entryX=0;entryY=0.5;entryDx=0;entryDy=0;exitX=0.5;exitY=0;exitDx=0;exitDy=0;" parent="1" source="xH7iesL_hVpo8TADQo8O-16" target="nnuj7ueeNtRS2dpJHOMj-6" edge="1">
          <mxGeometry width="50" height="50" relative="1" as="geometry">
            <mxPoint x="550" y="527.5" as="sourcePoint" />
            <mxPoint x="600" y="477.5" as="targetPoint" />
          </mxGeometry>
        </mxCell>
        <mxCell id="nnuj7ueeNtRS2dpJHOMj-33" value="" style="endArrow=none;html=1;rounded=0;entryX=0;entryY=0.5;entryDx=0;entryDy=0;exitX=0.5;exitY=0;exitDx=0;exitDy=0;" parent="1" source="xH7iesL_hVpo8TADQo8O-16" target="nnuj7ueeNtRS2dpJHOMj-7" edge="1">
          <mxGeometry width="50" height="50" relative="1" as="geometry">
            <mxPoint x="560" y="537.5" as="sourcePoint" />
            <mxPoint x="610" y="487.5" as="targetPoint" />
          </mxGeometry>
        </mxCell>
        <mxCell id="nnuj7ueeNtRS2dpJHOMj-34" value="" style="endArrow=none;html=1;rounded=0;entryX=0;entryY=0.5;entryDx=0;entryDy=0;exitX=0.5;exitY=0;exitDx=0;exitDy=0;" parent="1" source="xH7iesL_hVpo8TADQo8O-16" target="nnuj7ueeNtRS2dpJHOMj-5" edge="1">
          <mxGeometry width="50" height="50" relative="1" as="geometry">
            <mxPoint x="540" y="517.5" as="sourcePoint" />
            <mxPoint x="590" y="467.5" as="targetPoint" />
          </mxGeometry>
        </mxCell>
        <mxCell id="nnuj7ueeNtRS2dpJHOMj-35" value="" style="endArrow=none;html=1;rounded=0;exitX=0.5;exitY=0;exitDx=0;exitDy=0;entryX=1;entryY=0.5;entryDx=0;entryDy=0;" parent="1" source="xH7iesL_hVpo8TADQo8O-16" target="nnuj7ueeNtRS2dpJHOMj-4" edge="1">
          <mxGeometry width="50" height="50" relative="1" as="geometry">
            <mxPoint x="570" y="530" as="sourcePoint" />
            <mxPoint x="540" y="360" as="targetPoint" />
          </mxGeometry>
        </mxCell>
        <mxCell id="nnuj7ueeNtRS2dpJHOMj-36" value="" style="endArrow=none;html=1;rounded=0;exitX=0.5;exitY=0;exitDx=0;exitDy=0;entryX=1;entryY=0.5;entryDx=0;entryDy=0;" parent="1" source="xH7iesL_hVpo8TADQo8O-16" target="nnuj7ueeNtRS2dpJHOMj-2" edge="1">
          <mxGeometry width="50" height="50" relative="1" as="geometry">
            <mxPoint x="580" y="540" as="sourcePoint" />
            <mxPoint x="550" y="370" as="targetPoint" />
          </mxGeometry>
        </mxCell>
        <mxCell id="nnuj7ueeNtRS2dpJHOMj-37" value="" style="endArrow=none;html=1;rounded=0;exitX=1;exitY=0.5;exitDx=0;exitDy=0;entryX=0;entryY=0.5;entryDx=0;entryDy=0;" parent="1" source="xH7iesL_hVpo8TADQo8O-16" target="xH7iesL_hVpo8TADQo8O-19" edge="1">
          <mxGeometry width="50" height="50" relative="1" as="geometry">
            <mxPoint x="590" y="550" as="sourcePoint" />
            <mxPoint x="560" y="380" as="targetPoint" />
          </mxGeometry>
        </mxCell>
        <mxCell id="nnuj7ueeNtRS2dpJHOMj-38" value="" style="endArrow=none;html=1;rounded=0;exitX=0;exitY=0.5;exitDx=0;exitDy=0;entryX=1;entryY=0.5;entryDx=0;entryDy=0;" parent="1" source="xH7iesL_hVpo8TADQo8O-17" target="xH7iesL_hVpo8TADQo8O-19" edge="1">
          <mxGeometry width="50" height="50" relative="1" as="geometry">
            <mxPoint x="610" y="550" as="sourcePoint" />
            <mxPoint x="690" y="548" as="targetPoint" />
          </mxGeometry>
        </mxCell>
        <mxCell id="nnuj7ueeNtRS2dpJHOMj-39" value="" style="endArrow=none;html=1;rounded=0;exitX=0.5;exitY=0;exitDx=0;exitDy=0;entryX=1;entryY=0.5;entryDx=0;entryDy=0;" parent="1" source="xH7iesL_hVpo8TADQo8O-17" target="xH7iesL_hVpo8TADQo8O-27" edge="1">
          <mxGeometry width="50" height="50" relative="1" as="geometry">
            <mxPoint x="620" y="560" as="sourcePoint" />
            <mxPoint x="700" y="558" as="targetPoint" />
          </mxGeometry>
        </mxCell>
        <mxCell id="nnuj7ueeNtRS2dpJHOMj-40" value="" style="endArrow=none;html=1;rounded=0;exitX=0.5;exitY=0;exitDx=0;exitDy=0;entryX=1;entryY=0.5;entryDx=0;entryDy=0;" parent="1" source="xH7iesL_hVpo8TADQo8O-17" target="xH7iesL_hVpo8TADQo8O-29" edge="1">
          <mxGeometry width="50" height="50" relative="1" as="geometry">
            <mxPoint x="890" y="530" as="sourcePoint" />
            <mxPoint x="810" y="435" as="targetPoint" />
          </mxGeometry>
        </mxCell>
        <mxCell id="nnuj7ueeNtRS2dpJHOMj-41" value="" style="endArrow=none;html=1;rounded=0;entryX=1;entryY=1;entryDx=0;entryDy=0;exitX=0.5;exitY=0;exitDx=0;exitDy=0;" parent="1" source="xH7iesL_hVpo8TADQo8O-17" target="xH7iesL_hVpo8TADQo8O-28" edge="1">
          <mxGeometry width="50" height="50" relative="1" as="geometry">
            <mxPoint x="890" y="510" as="sourcePoint" />
            <mxPoint x="820" y="445" as="targetPoint" />
          </mxGeometry>
        </mxCell>
        <mxCell id="nnuj7ueeNtRS2dpJHOMj-42" value="" style="endArrow=none;html=1;rounded=0;entryX=0.5;entryY=1;entryDx=0;entryDy=0;exitX=0.5;exitY=0;exitDx=0;exitDy=0;" parent="1" source="xH7iesL_hVpo8TADQo8O-17" target="xH7iesL_hVpo8TADQo8O-30" edge="1">
          <mxGeometry width="50" height="50" relative="1" as="geometry">
            <mxPoint x="900" y="480" as="sourcePoint" />
            <mxPoint x="830" y="455" as="targetPoint" />
          </mxGeometry>
        </mxCell>
        <mxCell id="nnuj7ueeNtRS2dpJHOMj-43" value="" style="endArrow=none;html=1;rounded=0;exitX=0.5;exitY=0;exitDx=0;exitDy=0;entryX=0.5;entryY=1;entryDx=0;entryDy=0;" parent="1" source="xH7iesL_hVpo8TADQo8O-17" target="xH7iesL_hVpo8TADQo8O-34" edge="1">
          <mxGeometry width="50" height="50" relative="1" as="geometry">
            <mxPoint x="920" y="560" as="sourcePoint" />
            <mxPoint x="840" y="465" as="targetPoint" />
          </mxGeometry>
        </mxCell>
        <mxCell id="nnuj7ueeNtRS2dpJHOMj-44" value="" style="endArrow=none;html=1;rounded=0;exitX=0.5;exitY=0;exitDx=0;exitDy=0;entryX=0;entryY=1;entryDx=0;entryDy=0;" parent="1" source="xH7iesL_hVpo8TADQo8O-17" target="xH7iesL_hVpo8TADQo8O-35" edge="1">
          <mxGeometry width="50" height="50" relative="1" as="geometry">
            <mxPoint x="930" y="570" as="sourcePoint" />
            <mxPoint x="850" y="475" as="targetPoint" />
          </mxGeometry>
        </mxCell>
        <mxCell id="nnuj7ueeNtRS2dpJHOMj-45" value="" style="endArrow=none;html=1;rounded=0;exitX=0.5;exitY=0;exitDx=0;exitDy=0;entryX=0;entryY=0.5;entryDx=0;entryDy=0;" parent="1" source="xH7iesL_hVpo8TADQo8O-17" target="xH7iesL_hVpo8TADQo8O-33" edge="1">
          <mxGeometry width="50" height="50" relative="1" as="geometry">
            <mxPoint x="940" y="580" as="sourcePoint" />
            <mxPoint x="860" y="485" as="targetPoint" />
          </mxGeometry>
        </mxCell>
        <mxCell id="nnuj7ueeNtRS2dpJHOMj-46" value="" style="endArrow=none;html=1;rounded=0;exitX=0.5;exitY=0;exitDx=0;exitDy=0;entryX=0;entryY=0.5;entryDx=0;entryDy=0;" parent="1" source="xH7iesL_hVpo8TADQo8O-17" target="nnuj7ueeNtRS2dpJHOMj-1" edge="1">
          <mxGeometry width="50" height="50" relative="1" as="geometry">
            <mxPoint x="950" y="590" as="sourcePoint" />
            <mxPoint x="870" y="495" as="targetPoint" />
          </mxGeometry>
        </mxCell>
        <mxCell id="nnuj7ueeNtRS2dpJHOMj-47" value="" style="endArrow=none;html=1;rounded=0;exitX=1;exitY=0.5;exitDx=0;exitDy=0;entryX=0;entryY=0.5;entryDx=0;entryDy=0;" parent="1" source="xH7iesL_hVpo8TADQo8O-17" target="xH7iesL_hVpo8TADQo8O-18" edge="1">
          <mxGeometry width="50" height="50" relative="1" as="geometry">
            <mxPoint x="890" y="530" as="sourcePoint" />
            <mxPoint x="970" y="435" as="targetPoint" />
          </mxGeometry>
        </mxCell>
        <mxCell id="nnuj7ueeNtRS2dpJHOMj-48" value="" style="endArrow=none;html=1;rounded=0;exitX=0.5;exitY=0;exitDx=0;exitDy=0;entryX=0.5;entryY=1;entryDx=0;entryDy=0;" parent="1" source="xH7iesL_hVpo8TADQo8O-30" target="xH7iesL_hVpo8TADQo8O-31" edge="1">
          <mxGeometry width="50" height="50" relative="1" as="geometry">
            <mxPoint x="900" y="540" as="sourcePoint" />
            <mxPoint x="980" y="445" as="targetPoint" />
          </mxGeometry>
        </mxCell>
        <mxCell id="nnuj7ueeNtRS2dpJHOMj-49" value="" style="endArrow=none;html=1;rounded=0;exitX=0.5;exitY=0;exitDx=0;exitDy=0;entryX=0.5;entryY=1;entryDx=0;entryDy=0;" parent="1" source="xH7iesL_hVpo8TADQo8O-30" target="xH7iesL_hVpo8TADQo8O-32" edge="1">
          <mxGeometry width="50" height="50" relative="1" as="geometry">
            <mxPoint x="910" y="550" as="sourcePoint" />
            <mxPoint x="990" y="455" as="targetPoint" />
          </mxGeometry>
        </mxCell>
        <mxCell id="nnuj7ueeNtRS2dpJHOMj-50" value="" style="endArrow=none;html=1;rounded=0;exitX=0.5;exitY=1;exitDx=0;exitDy=0;entryX=0.5;entryY=0;entryDx=0;entryDy=0;" parent="1" source="nnuj7ueeNtRS2dpJHOMj-10" target="nnuj7ueeNtRS2dpJHOMj-8" edge="1">
          <mxGeometry width="50" height="50" relative="1" as="geometry">
            <mxPoint x="670" y="230" as="sourcePoint" />
            <mxPoint x="610" y="270" as="targetPoint" />
          </mxGeometry>
        </mxCell>
        <mxCell id="nnuj7ueeNtRS2dpJHOMj-51" value="" style="endArrow=none;html=1;rounded=0;exitX=0.5;exitY=1;exitDx=0;exitDy=0;entryX=0.5;entryY=0;entryDx=0;entryDy=0;" parent="1" source="nnuj7ueeNtRS2dpJHOMj-9" target="nnuj7ueeNtRS2dpJHOMj-8" edge="1">
          <mxGeometry width="50" height="50" relative="1" as="geometry">
            <mxPoint x="680" y="240" as="sourcePoint" />
            <mxPoint x="620" y="280" as="targetPoint" />
          </mxGeometry>
        </mxCell>
        <mxCell id="nnuj7ueeNtRS2dpJHOMj-52" value="" style="endArrow=none;html=1;rounded=0;exitX=0;exitY=0.5;exitDx=0;exitDy=0;entryX=1;entryY=0.5;entryDx=0;entryDy=0;" parent="1" source="xH7iesL_hVpo8TADQo8O-20" target="xH7iesL_hVpo8TADQo8O-18" edge="1">
          <mxGeometry width="50" height="50" relative="1" as="geometry">
            <mxPoint x="890" y="530" as="sourcePoint" />
            <mxPoint x="970" y="435" as="targetPoint" />
          </mxGeometry>
        </mxCell>
        <mxCell id="nnuj7ueeNtRS2dpJHOMj-53" value="" style="endArrow=none;html=1;rounded=0;exitX=0.5;exitY=1;exitDx=0;exitDy=0;entryX=0.5;entryY=0;entryDx=0;entryDy=0;" parent="1" source="xH7iesL_hVpo8TADQo8O-21" target="xH7iesL_hVpo8TADQo8O-20" edge="1">
          <mxGeometry width="50" height="50" relative="1" as="geometry">
            <mxPoint x="1170" y="550" as="sourcePoint" />
            <mxPoint x="1090" y="551" as="targetPoint" />
          </mxGeometry>
        </mxCell>
        <mxCell id="nnuj7ueeNtRS2dpJHOMj-54" value="" style="endArrow=none;html=1;rounded=0;exitX=0.5;exitY=0;exitDx=0;exitDy=0;entryX=0.5;entryY=1;entryDx=0;entryDy=0;" parent="1" source="xH7iesL_hVpo8TADQo8O-20" target="xH7iesL_hVpo8TADQo8O-22" edge="1">
          <mxGeometry width="50" height="50" relative="1" as="geometry">
            <mxPoint x="1180" y="560" as="sourcePoint" />
            <mxPoint x="1100" y="561" as="targetPoint" />
          </mxGeometry>
        </mxCell>
        <mxCell id="nnuj7ueeNtRS2dpJHOMj-55" value="" style="endArrow=none;html=1;rounded=0;exitX=0.5;exitY=0;exitDx=0;exitDy=0;entryX=0.5;entryY=1;entryDx=0;entryDy=0;" parent="1" source="xH7iesL_hVpo8TADQo8O-20" target="xH7iesL_hVpo8TADQo8O-26" edge="1">
          <mxGeometry width="50" height="50" relative="1" as="geometry">
            <mxPoint x="1190" y="570" as="sourcePoint" />
            <mxPoint x="1270" y="490" as="targetPoint" />
          </mxGeometry>
        </mxCell>
        <mxCell id="nnuj7ueeNtRS2dpJHOMj-56" value="" style="endArrow=none;html=1;rounded=0;exitX=0.5;exitY=0;exitDx=0;exitDy=0;entryX=1;entryY=1;entryDx=0;entryDy=0;" parent="1" source="xH7iesL_hVpo8TADQo8O-22" target="xH7iesL_hVpo8TADQo8O-23" edge="1">
          <mxGeometry width="50" height="50" relative="1" as="geometry">
            <mxPoint x="1200" y="580" as="sourcePoint" />
            <mxPoint x="1120" y="581" as="targetPoint" />
          </mxGeometry>
        </mxCell>
        <mxCell id="nnuj7ueeNtRS2dpJHOMj-57" value="" style="endArrow=none;html=1;rounded=0;exitX=0.5;exitY=0;exitDx=0;exitDy=0;entryX=0.5;entryY=1;entryDx=0;entryDy=0;" parent="1" source="xH7iesL_hVpo8TADQo8O-22" target="xH7iesL_hVpo8TADQo8O-24" edge="1">
          <mxGeometry width="50" height="50" relative="1" as="geometry">
            <mxPoint x="1210" y="389" as="sourcePoint" />
            <mxPoint x="1158" y="364" as="targetPoint" />
          </mxGeometry>
        </mxCell>
        <mxCell id="nnuj7ueeNtRS2dpJHOMj-58" value="" style="endArrow=none;html=1;rounded=0;exitX=0.5;exitY=0;exitDx=0;exitDy=0;entryX=0.5;entryY=1;entryDx=0;entryDy=0;" parent="1" source="xH7iesL_hVpo8TADQo8O-22" target="xH7iesL_hVpo8TADQo8O-25" edge="1">
          <mxGeometry width="50" height="50" relative="1" as="geometry">
            <mxPoint x="1210" y="389" as="sourcePoint" />
            <mxPoint x="1210" y="349" as="targetPoint" />
          </mxGeometry>
        </mxCell>
        <mxCell id="luQXV11UqfPHVYDPYqHn-1" value="N:M" style="text;html=1;align=center;verticalAlign=middle;resizable=0;points=[];autosize=1;strokeColor=none;fillColor=none;" vertex="1" parent="1">
          <mxGeometry x="335" y="410" width="50" height="30" as="geometry" />
        </mxCell>
        <mxCell id="luQXV11UqfPHVYDPYqHn-2" value="N:M" style="text;html=1;align=center;verticalAlign=middle;resizable=0;points=[];autosize=1;strokeColor=none;fillColor=none;" vertex="1" parent="1">
          <mxGeometry x="335" y="618" width="50" height="30" as="geometry" />
        </mxCell>
        <mxCell id="luQXV11UqfPHVYDPYqHn-3" value="N:M" style="text;html=1;align=center;verticalAlign=middle;resizable=0;points=[];autosize=1;strokeColor=none;fillColor=none;" vertex="1" parent="1">
          <mxGeometry x="695" y="568" width="50" height="30" as="geometry" />
        </mxCell>
        <mxCell id="luQXV11UqfPHVYDPYqHn-4" value="N:1" style="text;html=1;align=center;verticalAlign=middle;resizable=0;points=[];autosize=1;strokeColor=none;fillColor=none;" vertex="1" parent="1">
          <mxGeometry x="1020" y="572" width="40" height="30" as="geometry" />
        </mxCell>
      </root>
    </mxGraphModel>
  </diagram>
</mxfile>
